<svg width="48" height="48" viewBox="0 0 48 48" fill="none" xmlns="http://www.w3.org/2000/svg">
<g clip-path="url(#clip0_258_2800)">
<g clip-path="url(#clip1_258_2800)">
<path fill-rule="evenodd" clip-rule="evenodd" d="M16.15 11.7819C16.1644 11.7828 16.1788 11.7839 16.1931 11.7854C16.3041 11.796 16.4128 11.8203 16.5146 11.8582C16.8725 11.9913 17.1521 12.2979 17.1521 12.7789L17.1073 14.0769L16.979 20.0946C16.9783 20.1311 16.9756 20.1672 16.9711 20.2027C17.0696 20.274 17.2359 20.2041 17.2256 20.0729L17.6098 14.1347C17.61 14.1313 17.6101 14.1279 17.6101 14.1245H17.6105C17.6105 13.6249 17.901 13.3063 18.2727 13.1681C18.4199 13.1133 18.581 13.0859 18.743 13.0859C18.9052 13.0859 19.0662 13.1133 19.2134 13.1681C19.5852 13.3063 19.8756 13.6249 19.8756 14.1245L19.3773 20.7679C19.3664 20.8626 19.4406 20.9477 19.543 20.9577C19.6454 20.9678 19.7373 20.8991 19.7481 20.8044L20.2479 16.5849C20.2487 16.5788 20.249 16.5727 20.249 16.5666H20.2494C20.2494 16.0546 20.5388 15.7415 20.9096 15.6074C21.0752 15.5475 21.257 15.5217 21.4372 15.5284C21.6172 15.535 21.7958 15.5744 21.9554 15.6449C22.3035 15.7985 22.5562 16.1069 22.5152 16.5525C22.2252 19.7088 21.9682 22.7271 21.935 25.753C21.9023 28.7326 22.0877 31.7059 22.6741 34.8008L21.1228 35.3617L20.6795 35.4928C20.6727 35.4942 20.666 35.4959 20.6593 35.4981C17.477 36.5087 14.5402 36.3191 12.6843 35.7817C12.1288 35.6209 11.6732 35.4297 11.3401 35.2313C11.0296 35.0465 10.8338 34.8627 10.7737 34.7007C10.7544 34.6485 10.7514 34.6003 10.7658 34.5577C11.2357 33.1677 11.3375 31.315 11.4416 29.4209L11.577 27.3271L7.51035 19.9148C7.5015 19.898 7.48951 19.8822 7.47441 19.8683C7.09271 19.515 7.05477 19.0995 7.21206 18.7583C7.27424 18.6233 7.36715 18.4986 7.48165 18.3927C7.59617 18.2867 7.73086 18.2007 7.87674 18.1432C8.24549 17.9976 8.69441 18.0327 9.07614 18.386L12.0116 21.1026C12.0456 21.1351 12.0932 21.1553 12.1458 21.1553C12.2491 21.1553 12.3327 21.0778 12.3327 20.9823V14.1245C12.3327 13.6249 12.6232 13.3063 12.995 13.168C13.1422 13.1133 13.3032 13.0859 13.4653 13.0859C13.6274 13.0859 13.7884 13.1133 13.9356 13.168C14.3074 13.3063 14.5978 13.6249 14.5978 14.1245H14.5986C14.5986 14.1247 14.5986 14.1249 14.5986 14.1252L14.6234 19.8329C14.6238 19.928 14.6854 20.0037 14.7882 20.0034C14.8313 20.0032 14.864 19.9897 14.8874 19.9671L14.9532 16.8785L14.9709 14.1245H14.9716V12.7789C14.9716 12.2979 15.2512 11.9912 15.6091 11.8581C15.7508 11.8054 15.9058 11.7791 16.0618 11.7791C16.0864 11.7791 16.1109 11.7797 16.1354 11.781L16.1396 11.7813L16.1499 11.7819L16.15 11.7819Z" fill="#BB2421"/>
<path fill-rule="evenodd" clip-rule="evenodd" d="M31.8501 11.7819C31.8357 11.7828 31.8213 11.7839 31.807 11.7854C31.696 11.796 31.5873 11.8203 31.4855 11.8582C31.1276 11.9913 30.848 12.2979 30.848 12.7789L30.8927 14.0769L31.021 20.0946C31.0218 20.1311 31.0245 20.1672 31.029 20.2027C30.9305 20.274 30.7642 20.2041 30.7745 20.0729L30.3903 14.1347C30.3901 14.1313 30.39 14.1279 30.39 14.1245H30.3896C30.3896 13.6249 30.0991 13.3063 29.7274 13.1681C29.5801 13.1133 29.4191 13.0859 29.257 13.0859C29.0949 13.0859 28.9339 13.1133 28.7867 13.1681C28.4149 13.3063 28.1245 13.6249 28.1245 14.1245L28.6228 20.7679C28.6337 20.8626 28.5594 20.9477 28.4571 20.9577C28.3547 20.9678 28.2628 20.8991 28.2519 20.8044L27.7521 16.5849C27.7514 16.5788 27.7511 16.5727 27.7511 16.5666H27.7507C27.7507 16.0546 27.4612 15.7415 27.0905 15.6074C26.9249 15.5475 26.7431 15.5217 26.5629 15.5284C26.3829 15.535 26.2043 15.5744 26.0447 15.6449C25.6966 15.7985 25.4439 16.1069 25.4848 16.5525C25.7749 19.7088 26.0319 22.7271 26.065 25.753C26.0977 28.7326 25.9124 31.7059 25.326 34.8008L26.8773 35.3617L27.3206 35.4928C27.3274 35.4942 27.3341 35.4959 27.3408 35.4981C30.5231 36.5087 33.4599 36.3191 35.3158 35.7817C35.8713 35.6209 36.3269 35.4297 36.66 35.2313C36.9705 35.0465 37.1663 34.8627 37.2263 34.7007C37.2457 34.6485 37.2487 34.6003 37.2343 34.5577C36.7644 33.1677 36.6626 31.315 36.5585 29.4209L36.4231 27.3271L40.4897 19.9148C40.4986 19.898 40.5106 19.8822 40.5257 19.8683C40.9074 19.515 40.9453 19.0995 40.788 18.7583C40.7258 18.6233 40.6329 18.4986 40.5184 18.3927C40.4039 18.2867 40.2692 18.2007 40.1233 18.1432C39.7546 17.9976 39.3057 18.0327 38.9239 18.386L35.9885 21.1026C35.9545 21.1351 35.9069 21.1553 35.8542 21.1553C35.751 21.1553 35.6673 21.0778 35.6673 20.9823V14.1245C35.6673 13.6249 35.3769 13.3063 35.0051 13.168C34.8579 13.1133 34.6969 13.0859 34.5348 13.0859C34.3727 13.0859 34.2117 13.1133 34.0645 13.168C33.6927 13.3063 33.4022 13.6249 33.4022 14.1245H33.4015C33.4015 14.1247 33.4015 14.1249 33.4015 14.1252L33.3767 19.8329C33.3763 19.928 33.3147 20.0037 33.2119 20.0034C33.1688 20.0032 33.1361 19.9897 33.1127 19.9671L33.0469 16.8785L33.0292 14.1245H33.0284V12.7789C33.0284 12.2979 32.7489 11.9912 32.391 11.8581C32.2493 11.8054 32.0943 11.7791 31.9382 11.7791C31.9137 11.7791 31.8891 11.7797 31.8647 11.781L31.8605 11.7813L31.8501 11.7819L31.8501 11.7819Z" fill="#BB2421"/>
</g>
</g>
<defs>
<clipPath id="clip0_258_2800">
<rect width="48" height="48" fill="white"/>
</clipPath>
<clipPath id="clip1_258_2800">
<rect width="45" height="45" fill="white" transform="translate(1.5 1.5)"/>
</clipPath>
</defs>
</svg>
