<svg width="48" height="48" viewBox="0 0 48 48" fill="none" xmlns="http://www.w3.org/2000/svg">
<g clip-path="url(#clip0_258_2790)">
<g clip-path="url(#clip1_258_2790)">
<path d="M34.885 14.8851C35.0012 14.7689 35.0934 14.6309 35.1563 14.4791C35.2192 14.3272 35.2516 14.1645 35.2516 14.0001C35.2516 13.8358 35.2192 13.673 35.1563 13.5212C35.0934 13.3693 35.0012 13.2313 34.885 13.1151C34.7688 12.9989 34.6308 12.9067 34.4789 12.8438C34.3271 12.7809 34.1644 12.7485 34 12.7485C33.8356 12.7485 33.6729 12.7809 33.521 12.8438C33.3692 12.9067 33.2312 12.9989 33.115 13.1151L16.5 29.7326L8.63499 21.8651C8.51877 21.7489 8.3808 21.6567 8.22895 21.5938C8.0771 21.5309 7.91435 21.4985 7.74999 21.4985C7.41805 21.4985 7.09971 21.6304 6.86499 21.8651C6.63028 22.0998 6.49841 22.4182 6.49841 22.7501C6.49841 23.0821 6.63028 23.4004 6.86499 23.6351L15.615 32.3851C15.7311 32.5015 15.869 32.5939 16.0209 32.6569C16.1728 32.7199 16.3356 32.7523 16.5 32.7523C16.6644 32.7523 16.8272 32.7199 16.9791 32.6569C17.1309 32.5939 17.2689 32.5015 17.385 32.3851L34.885 14.8851ZM24.365 32.3851L22.125 30.1426L23.8925 28.3751L25.25 29.7326L41.865 13.1151C42.0997 12.8804 42.4181 12.7485 42.75 12.7485C43.0819 12.7485 43.4003 12.8804 43.635 13.1151C43.8697 13.3498 44.0016 13.6682 44.0016 14.0001C44.0016 14.3321 43.8697 14.6504 43.635 14.8851L26.135 32.3851C26.0189 32.5015 25.8809 32.5939 25.7291 32.6569C25.5772 32.7199 25.4144 32.7523 25.25 32.7523C25.0856 32.7523 24.9228 32.7199 24.7709 32.6569C24.619 32.5939 24.4811 32.5015 24.365 32.3851Z" fill="#BB2421"/>
<path d="M17.385 21.8651L19.625 24.1076L17.8575 25.8751L15.615 23.6351C15.3803 23.4004 15.2484 23.0821 15.2484 22.7501C15.2484 22.4182 15.3803 22.0998 15.615 21.8651C15.8497 21.6304 16.1681 21.4985 16.5 21.4985C16.8319 21.4985 17.1503 21.6304 17.385 21.8651Z" fill="#BB2421"/>
</g>
</g>
<defs>
<clipPath id="clip0_258_2790">
<rect width="48" height="48" fill="white"/>
</clipPath>
<clipPath id="clip1_258_2790">
<rect width="40" height="40" fill="white" transform="translate(4 4)"/>
</clipPath>
</defs>
</svg>
