<svg width="48" height="48" viewBox="0 0 48 48" fill="none" xmlns="http://www.w3.org/2000/svg">
<g clip-path="url(#clip0_258_2813)">
<path d="M29.625 21.1875C29.625 20.9389 29.7238 20.7004 29.8996 20.5246C30.0754 20.3488 30.3139 20.25 30.5625 20.25H32.4375C32.6861 20.25 32.9246 20.3488 33.1004 20.5246C33.2762 20.7004 33.375 20.9389 33.375 21.1875V23.0625C33.375 23.3111 33.2762 23.5496 33.1004 23.7254C32.9246 23.9012 32.6861 24 32.4375 24H30.5625C30.3139 24 30.0754 23.9012 29.8996 23.7254C29.7238 23.5496 29.625 23.3111 29.625 23.0625V21.1875ZM24 21.1875C24 20.9389 24.0988 20.7004 24.2746 20.5246C24.4504 20.3488 24.6889 20.25 24.9375 20.25H26.8125C27.0611 20.25 27.2996 20.3488 27.4754 20.5246C27.6512 20.7004 27.75 20.9389 27.75 21.1875V23.0625C27.75 23.3111 27.6512 23.5496 27.4754 23.7254C27.2996 23.9012 27.0611 24 26.8125 24H24.9375C24.6889 24 24.4504 23.9012 24.2746 23.7254C24.0988 23.5496 24 23.3111 24 23.0625V21.1875ZM14.625 26.8125C14.625 26.5639 14.7238 26.3254 14.8996 26.1496C15.0754 25.9738 15.3139 25.875 15.5625 25.875H17.4375C17.6861 25.875 17.9246 25.9738 18.1004 26.1496C18.2762 26.3254 18.375 26.5639 18.375 26.8125V28.6875C18.375 28.9361 18.2762 29.1746 18.1004 29.3504C17.9246 29.5262 17.6861 29.625 17.4375 29.625H15.5625C15.3139 29.625 15.0754 29.5262 14.8996 29.3504C14.7238 29.1746 14.625 28.9361 14.625 28.6875V26.8125ZM20.25 26.8125C20.25 26.5639 20.3488 26.3254 20.5246 26.1496C20.7004 25.9738 20.9389 25.875 21.1875 25.875H23.0625C23.3111 25.875 23.5496 25.9738 23.7254 26.1496C23.9012 26.3254 24 26.5639 24 26.8125V28.6875C24 28.9361 23.9012 29.1746 23.7254 29.3504C23.5496 29.5262 23.3111 29.625 23.0625 29.625H21.1875C20.9389 29.625 20.7004 29.5262 20.5246 29.3504C20.3488 29.1746 20.25 28.9361 20.25 28.6875V26.8125Z" fill="#BB2421"/>
<path d="M15.5625 9C15.8111 9 16.0496 9.09877 16.2254 9.27459C16.4012 9.4504 16.5 9.68886 16.5 9.9375V10.875H31.5V9.9375C31.5 9.68886 31.5988 9.4504 31.7746 9.27459C31.9504 9.09877 32.1889 9 32.4375 9C32.6861 9 32.9246 9.09877 33.1004 9.27459C33.2762 9.4504 33.375 9.68886 33.375 9.9375V10.875H35.25C36.2446 10.875 37.1984 11.2701 37.9016 11.9733C38.6049 12.6766 39 13.6304 39 14.625V35.25C39 36.2446 38.6049 37.1984 37.9016 37.9016C37.1984 38.6049 36.2446 39 35.25 39H12.75C11.7554 39 10.8016 38.6049 10.0983 37.9016C9.39509 37.1984 9 36.2446 9 35.25V14.625C9 13.6304 9.39509 12.6766 10.0983 11.9733C10.8016 11.2701 11.7554 10.875 12.75 10.875H14.625V9.9375C14.625 9.68886 14.7238 9.4504 14.8996 9.27459C15.0754 9.09877 15.3139 9 15.5625 9ZM10.875 16.5V35.25C10.875 35.7473 11.0725 36.2242 11.4242 36.5758C11.7758 36.9275 12.2527 37.125 12.75 37.125H35.25C35.7473 37.125 36.2242 36.9275 36.5758 36.5758C36.9275 36.2242 37.125 35.7473 37.125 35.25V16.5H10.875Z" fill="#BB2421"/>
</g>
<defs>
<clipPath id="clip0_258_2813">
<rect width="30" height="30" fill="white" transform="translate(9 9)"/>
</clipPath>
</defs>
</svg>
